<svg viewBox="0 0 114 18" xmlns="http://www.w3.org/2000/svg" fill-rule="evenodd" clip-rule="evenodd" stroke-linejoin="round" stroke-miterlimit="1.414"><g fill="#373c42" fill-rule="nonzero"><path d="M.937 11.726A.925.925 0 0 0 0 12.64c0 .465.426.866.92.866.528 0 .972-.385.972-.866 0-.497-.444-.914-.955-.914zM4.84 13.33V1.476h2.266v3.785c.727-.684 1.568-1.058 2.522-1.122.125-.011.262-.016.409-.016 1.432 0 2.608.492 3.528 1.475.818.888 1.227 1.963 1.227 3.224 0 1.209-.37 2.262-1.108 3.16-.863 1.038-2.028 1.556-3.493 1.556-1.102 0-2.023-.294-2.761-.882a6.724 6.724 0 0 1-.511-.465v1.139H4.84zm4.873-7.25c-.977 0-1.721.363-2.232 1.09-.341.471-.511 1.022-.511 1.652 0 1.016.386 1.781 1.159 2.294.465.31 1.011.465 1.636.465 1.022 0 1.783-.379 2.283-1.138.307-.46.46-.995.46-1.604 0-.974-.375-1.728-1.125-2.262-.477-.332-1.033-.497-1.67-.497zM26.294 9.833h-7.31c.204.791.727 1.321 1.568 1.588.318.107.664.16 1.039.16.773 0 1.397-.224 1.875-.673a3.7 3.7 0 0 0 .204-.209h2.471c-.136.396-.386.808-.75 1.235-.988 1.07-2.238 1.604-3.749 1.604-1.499 0-2.749-.481-3.749-1.443-.909-.877-1.363-1.936-1.363-3.176 0-1.348.505-2.476 1.517-3.385.954-.866 2.107-1.299 3.459-1.299 1.5 0 2.715.503 3.647 1.508.818.887 1.227 1.978 1.227 3.272 0 .289-.029.561-.086.818zm-7.378-1.877h5.231c-.261-1.048-.988-1.63-2.181-1.748a5.294 5.294 0 0 0-.426-.016c-1.307 0-2.159.529-2.556 1.588a2.42 2.42 0 0 0-.068.176zM29.004 13.33V6.384h-1.108V4.443h1.108V1.476h2.266v2.967h1.364v1.941H31.27v6.946h-2.266zM44.051 4.443v8.887h-2.079v-1.155c-.75.802-1.624 1.251-2.624 1.347-.159.011-.33.016-.511.016-1.489 0-2.687-.497-3.596-1.491-.772-.856-1.159-1.899-1.159-3.128 0-1.476.523-2.663 1.568-3.561.886-.749 1.965-1.123 3.238-1.123 1.238 0 2.221.406 2.948 1.219.045.053.091.112.136.176V4.443h2.079zm-4.925 1.749c-.999 0-1.755.374-2.266 1.123-.33.47-.494 1.021-.494 1.652 0 .994.397 1.727 1.193 2.197.454.278.988.417 1.602.417.897 0 1.584-.267 2.061-.802a3.135 3.135 0 0 0 .682-1.828c0-1.016-.386-1.781-1.159-2.294-.465-.31-1.005-.465-1.619-.465zM47.8 11.726a.925.925 0 0 0-.937.914c0 .465.426.866.92.866.529 0 .972-.385.972-.866 0-.497-.443-.914-.955-.914zM59.03 4.443h2.165v7.203c0 1.625-.318 2.828-.955 3.609-.908 1.08-2.221 1.62-3.936 1.62-1.806 0-3.193-.567-4.158-1.701a4.435 4.435 0 0 1-.699-1.122h2.573c.546.566 1.199.877 1.96.93.125.011.261.016.409.016 1.681 0 2.562-.946 2.641-2.839-.727.802-1.567 1.251-2.522 1.347a4.825 4.825 0 0 1-.579.032c-1.454 0-2.624-.508-3.511-1.523-.749-.867-1.124-1.931-1.124-3.193 0-1.422.505-2.577 1.516-3.464.864-.749 1.909-1.123 3.136-1.123 1.363 0 2.391.444 3.084 1.331V4.443zm-2.828 1.749c-1.034 0-1.784.401-2.25 1.203-.25.438-.375.946-.375 1.524 0 1.101.421 1.882 1.261 2.342.398.213.864.32 1.398.32 1.068 0 1.84-.395 2.317-1.187.25-.417.375-.909.375-1.475 0-1.048-.397-1.818-1.193-2.31a2.757 2.757 0 0 0-1.329-.417h-.204zM68.386 4.235c1.477 0 2.704.486 3.681 1.46.909.898 1.363 1.983 1.363 3.256 0 1.251-.5 2.331-1.499 3.24-.989.898-2.165 1.347-3.528 1.347-1.397 0-2.59-.465-3.579-1.395-.954-.909-1.431-1.995-1.431-3.256 0-1.294.5-2.396 1.5-3.305.977-.898 2.141-1.347 3.493-1.347zm.017 1.957c-.852 0-1.556.326-2.113.978a2.563 2.563 0 0 0-.614 1.685c0 .909.358 1.636 1.074 2.181a2.722 2.722 0 0 0 1.67.545c.875 0 1.585-.336 2.13-1.01a2.603 2.603 0 0 0 .597-1.684c0-.867-.347-1.572-1.04-2.118a2.719 2.719 0 0 0-1.704-.577zM83.962 4.443v8.887h-2.096v-.85c-.659.609-1.375.951-2.148 1.026l-.562.032c-1.272 0-2.232-.438-2.88-1.315-.432-.599-.665-1.412-.699-2.438a9.066 9.066 0 0 1-.017-.578V4.443h2.267V8.79c0 1.123.153 1.866.46 2.23.295.374.738.561 1.329.561.807 0 1.38-.272 1.721-.818.239-.342.358-1.053.358-2.133V4.443h2.267zM89.534 13.33l-3.8-8.887h2.522l2.181 5.887 2.147-5.887h2.557L91.34 13.33h-1.806zM96.412 11.726c-.481 0-.882.401-.882.914 0 .465.401.866.866.866.497 0 .914-.385.914-.866 0-.497-.417-.914-.898-.914zM100.246 5.53h1.766l-1.785 8.266c-.466 2.134-1.106 3.201-1.94 3.201-.233 0-.388-.136-.388-.33 0-.058.019-.097.077-.194a.576.576 0 0 0 .097-.33.761.761 0 0 0-.776-.756c-.407 0-.718.368-.718.834 0 .66.679 1.183 1.533 1.183 1.766 0 3.143-1.94 3.997-5.568l1.455-6.306h2.154l.116-.621h-2.114c.582-3.105 1.338-4.482 2.425-4.482.272 0 .427.097.427.252 0 .039-.02.097-.078.194a.657.657 0 0 0-.116.408c0 .465.291.776.718.776.446 0 .834-.369.834-.796 0-.718-.718-1.261-1.688-1.261-.951 0-1.727.427-2.445 1.339-.582.776-.989 1.668-1.591 3.57h-1.824l-.136.621zM108.163 13.33c1.067-3.396 1.397-4.191 2.289-5.685.679-1.106 1.223-1.708 1.553-1.708.135 0 .232.078.329.272.156.33.311.427.699.427.582 0 .912-.349.912-.97s-.369-1.009-.912-1.009c-.446 0-.99.291-1.494.834-.815.815-1.63 1.999-1.94 2.755l-.291.718 1.086-4.268-.058-.039c-1.416.252-1.63.291-3.046.524v.329c.427-.077.504-.097.659-.097.427 0 .68.194.68.544 0 .252-.156 1.047-.311 1.63l-1.649 5.743h1.494z"/></g></svg>