<svg viewBox="0 0 113 19" xmlns="http://www.w3.org/2000/svg" fill-rule="evenodd" clip-rule="evenodd" stroke-linejoin="round" stroke-miterlimit="1.414"><g fill="#373c42" fill-rule="nonzero"><path d="M.937 12.452a.925.925 0 0 0-.937.914c0 .465.426.866.92.866.528 0 .972-.385.972-.866 0-.497-.444-.914-.955-.914zM13.903 2.206v11.85h-2.08v-1.151c-.461.48-.935.827-1.423 1.041-.488.214-1.051.321-1.689.321a4.83 4.83 0 0 1-2.409-.61 4.497 4.497 0 0 1-1.71-1.684 4.64 4.64 0 0 1-.624-2.374c0-.872.209-1.673.628-2.404A4.588 4.588 0 0 1 6.31 5.472a4.684 4.684 0 0 1 2.384-.627c.594 0 1.15.1 1.668.298.519.198.945.47 1.278.814V2.206h2.263zM8.977 6.803c-.766 0-1.411.261-1.935.784-.524.522-.786 1.169-.786 1.942 0 .778.273 1.436.82 1.974.546.538 1.21.806 1.992.806.766 0 1.414-.263 1.943-.791.53-.527.795-1.172.795-1.934 0-.804-.266-1.469-.799-1.993-.532-.525-1.209-.788-2.03-.788zM25.687 5.166v8.89h-2.072v-1.151c-.455.485-.925.834-1.41 1.045-.486.212-1.061.317-1.727.317-.91 0-1.727-.197-2.451-.591a4.3 4.3 0 0 1-1.697-1.649c-.408-.704-.612-1.498-.612-2.381 0-.892.206-1.695.616-2.408a4.361 4.361 0 0 1 1.714-1.672c.733-.402 1.559-.603 2.48-.603.682 0 1.27.111 1.764.333.494.222.935.575 1.323 1.061V5.166h2.072zm-4.959 1.755c-.788 0-1.439.261-1.952.783-.513.522-.769 1.185-.769 1.989 0 .778.259 1.409.778 1.892.518.483 1.191.724 2.017.724.821 0 1.483-.245 1.985-.736s.753-1.133.753-1.927c0-.804-.262-1.459-.786-1.965-.524-.507-1.2-.76-2.026-.76zM28.794 14.056V7.109h-1.107V5.166h1.107v-2.96h2.263v2.96h1.365v1.943h-1.365v6.947h-2.263zM43.866 5.166v8.89h-2.072v-1.151c-.455.485-.925.834-1.41 1.045-.485.212-1.061.317-1.727.317-.909 0-1.726-.197-2.45-.591a4.296 4.296 0 0 1-1.698-1.649c-.407-.704-.611-1.498-.611-2.381 0-.892.205-1.695.616-2.408.41-.713.981-1.27 1.714-1.672.732-.402 1.558-.603 2.479-.603.683 0 1.271.111 1.764.333.494.222.935.575 1.323 1.061V5.166h2.072zm-4.959 1.755c-.788 0-1.438.261-1.951.783-.513.522-.77 1.185-.77 1.989 0 .778.259 1.409.778 1.892.519.483 1.191.724 2.018.724.821 0 1.482-.245 1.984-.736s.753-1.133.753-1.927c0-.804-.262-1.459-.786-1.965-.524-.507-1.199-.76-2.026-.76zM47.772 12.452a.925.925 0 0 0-.937.914c0 .465.426.866.92.866.528 0 .971-.385.971-.866 0-.497-.443-.914-.954-.914zM58.967 5.166h2.163v7.206c0 .883-.081 1.615-.245 2.197a3.736 3.736 0 0 1-.795 1.492c-.898 1.029-2.183 1.543-3.852 1.543-1.154 0-2.155-.248-3.004-.744a4.335 4.335 0 0 1-1.847-2.083h2.571c.333.344.679.588 1.04.732.36.143.804.215 1.331.215.843 0 1.484-.235 1.922-.705.439-.47.677-1.182.716-2.138-.444.491-.906.845-1.385 1.061-.48.217-1.053.325-1.719.325-.887 0-1.685-.201-2.392-.603a4.244 4.244 0 0 1-1.652-1.68c-.394-.718-.59-1.528-.59-2.432 0-1.315.441-2.409 1.323-3.281.882-.872 1.991-1.308 3.328-1.308 1.353 0 2.382.444 3.087 1.331V5.166zm-2.862 1.755c-.777 0-1.402.249-1.877.748-.474.498-.711 1.158-.711 1.977 0 .81.24 1.456.72 1.939.479.483 1.124.724 1.934.724.821 0 1.476-.244 1.964-.732s.732-1.142.732-1.962c0-.804-.254-1.454-.761-1.95-.508-.496-1.175-.744-2.001-.744zM68.439 4.963c.899 0 1.731.209 2.497.626.765.418 1.37.986 1.814 1.704a4.37 4.37 0 0 1 .665 2.338c0 .835-.223 1.609-.67 2.322a4.782 4.782 0 0 1-1.826 1.692 5.22 5.22 0 0 1-2.513.622c-.91 0-1.751-.207-2.525-.622a4.808 4.808 0 0 1-1.835-1.692 4.276 4.276 0 0 1-.674-2.322c0-.637.132-1.244.395-1.821a4.586 4.586 0 0 1 1.074-1.488 5.118 5.118 0 0 1 1.618-.991 5.392 5.392 0 0 1 1.98-.368zm-.091 1.958c-.732 0-1.363.265-1.893.795a2.592 2.592 0 0 0-.795 1.899c0 .742.267 1.376.799 1.903a2.631 2.631 0 0 0 1.922.791c.755 0 1.401-.262 1.939-.787.538-.524.807-1.155.807-1.891 0-.763-.269-1.405-.807-1.927s-1.196-.783-1.972-.783zM84.019 5.166v8.89h-2.096v-.854c-.433.392-.851.667-1.253.827-.402.159-.886.238-1.452.238-.638 0-1.209-.121-1.714-.364a3.086 3.086 0 0 1-1.223-1.037 3.523 3.523 0 0 1-.516-1.191c-.1-.433-.15-1.013-.15-1.739v-4.77h2.272v4.347c0 .616.036 1.098.108 1.445.072.348.194.62.366.819.327.355.766.532 1.315.532a2.38 2.38 0 0 0 1.052-.223 1.61 1.61 0 0 0 .704-.63c.122-.199.206-.456.253-.772.048-.316.071-.758.071-1.327V5.166h2.263zM89.639 14.056l-3.802-8.89h2.521l2.18 5.89 2.147-5.89h2.563l-3.803 8.89h-1.806zM96.441 12.453c-.481 0-.881.4-.881.914 0 .465.4.865.865.865.497 0 .914-.384.914-.865a.92.92 0 0 0-.898-.914z"/><path d="M99.45 5.831h1.862l-1.883 8.716c-.491 2.251-1.166 3.376-2.046 3.376-.245 0-.409-.143-.409-.348 0-.061.021-.102.082-.204a.613.613 0 0 0 .102-.348.803.803 0 0 0-.818-.798c-.43 0-.757.389-.757.88 0 .695.716 1.248 1.616 1.248 1.862 0 3.315-2.046 4.215-5.872l1.535-6.65h2.271l.122-.655h-2.23c.614-3.273 1.412-4.726 2.558-4.726.286 0 .45.102.45.266 0 .041-.021.102-.082.205a.694.694 0 0 0-.123.429c0 .491.307.819.757.819.471 0 .88-.389.88-.839 0-.757-.757-1.33-1.78-1.33-1.003 0-1.821.45-2.578 1.412-.614.818-1.043 1.759-1.678 3.764h-1.923l-.143.655zM106.672 14.056c1.126-3.58 1.473-4.419 2.415-5.995.716-1.166 1.289-1.8 1.636-1.8.144 0 .246.082.348.286.164.348.328.45.737.45.614 0 .961-.368.961-1.023 0-.654-.388-1.064-.961-1.064-.471 0-1.044.307-1.576.88-.859.86-1.718 2.108-2.046 2.906l-.307.757 1.146-4.502-.061-.041c-1.494.266-1.719.307-3.212.553v.348c.45-.082.532-.103.695-.103.45 0 .716.205.716.573 0 .266-.163 1.105-.327 1.719l-1.739 6.056h1.575z"/></g></svg>